<svg width="80" height="42" viewBox="0 0 80 42" fill="none" xmlns="http://www.w3.org/2000/svg">
<path d="M72.1987 17.0254C73.7255 17.6635 75.0887 18.5823 76.2883 19.7808C77.4867 20.9804 78.4056 22.3436 79.0437 23.8703C79.6817 25.3983 80.0008 27.0318 80.0008 28.772C80.0008 30.5123 79.6817 32.0889 79.0437 33.6157C78.4056 35.1436 77.4867 36.5068 76.2883 37.7053C75.0898 38.9037 73.7255 39.8226 72.1987 40.4606C70.6708 41.0987 69.0373 41.4178 67.297 41.4178H43.5137C42.2375 41.4178 41.1447 40.9642 40.2362 40.0546C39.3267 39.1462 38.8731 38.0533 38.8731 36.7771C38.8731 35.501 39.3267 34.4092 40.2362 33.4997C41.1458 32.5901 42.2375 32.1365 43.5137 32.1365H67.297C68.2634 32.1365 69.0755 31.8082 69.7334 31.1503C70.3912 30.4925 70.7195 29.7001 70.7195 28.772C70.7195 27.8439 70.39 26.9935 69.7334 26.3357C69.0755 25.679 68.2634 25.3495 67.297 25.3495H49.1985C47.4965 25.3495 45.8816 25.0305 44.3548 24.3924C42.8269 23.7543 41.4637 22.8366 40.2653 21.637C39.0656 20.4386 38.148 19.0754 37.5099 17.5474C36.8718 16.0207 36.5527 14.4057 36.5527 12.7038C36.5527 11.0018 36.8718 9.3393 37.5099 7.83109C38.148 6.32288 39.0656 4.95041 40.2653 3.71252C41.4637 2.51407 42.8269 1.59522 44.3548 0.957134C45.8816 0.319045 47.4965 0 49.1985 0H73.0398C74.316 0 75.4077 0.454783 76.3173 1.36319C77.2257 2.27276 77.6805 3.36447 77.6805 4.64065C77.6805 5.91683 77.2257 7.05842 76.3173 7.94711C75.4077 8.83695 74.316 9.28129 73.0398 9.28129H49.1985C48.2704 9.28129 47.4768 9.62006 46.8202 10.2964C46.1624 10.974 45.834 11.7756 45.834 12.7038C45.834 13.6319 46.1624 14.4255 46.8202 15.0821C47.4768 15.7399 48.2704 16.0682 49.1985 16.0682H67.297C69.0373 16.0682 70.6708 16.3873 72.1987 17.0254Z" fill="url(#paint0_linear_330_1864)"/>
<path d="M39.739 3.71252C40.9375 4.91213 41.8563 6.27532 42.4944 7.80209C43.1325 9.33002 43.4515 10.945 43.4515 12.6458C43.4515 15.7016 42.5037 18.3886 40.6091 20.7089C41.5373 21.8308 42.2427 23.0779 42.7264 24.4504C43.2091 25.824 43.4515 27.2452 43.4515 28.714V28.772C43.4515 30.474 43.1325 32.0889 42.4944 33.6157C41.8563 35.1436 40.9375 36.5068 39.739 37.7053C38.5406 38.9037 37.1762 39.8226 35.6495 40.4606C34.1215 41.0987 32.5066 41.4178 30.8058 41.4178H4.64413C3.36795 41.4178 2.27508 40.9642 1.36667 40.0546C0.457104 39.1462 0.00348034 38.0533 0.00348034 36.7771C0.00348034 35.501 0.457104 34.4092 1.36667 33.4997C2.27624 32.5901 3.36795 32.1365 4.64413 32.1365H30.8058C31.7339 32.1365 32.5263 31.8082 33.1841 31.1503C33.8419 30.4925 34.1702 29.7001 34.1702 28.772V28.714C34.1702 27.7859 33.8408 26.9935 33.1841 26.3357C32.5263 25.679 31.7339 25.3495 30.8058 25.3495H4.64413C3.36795 25.3495 2.27508 24.8959 1.36667 23.9863C0.457104 23.0779 0.00348034 21.9851 0.00348034 20.7089C0.00348034 19.4327 0.457104 18.2923 1.36667 17.4024C2.27508 16.5137 3.36795 16.0682 4.64413 16.0682H30.8058C31.7339 16.0682 32.5263 15.7399 33.1841 15.0821C33.8419 14.4243 34.1702 13.6133 34.1702 12.6458C34.1702 11.6782 33.8408 10.9252 33.1841 10.2674C32.5263 9.61078 31.7339 9.28129 30.8058 9.28129H4.64413C3.36795 9.28129 2.27508 8.83695 1.36667 7.94711C0.457104 7.05842 0.00348034 5.95627 0.00348034 4.64065C0.00348034 3.32502 0.457104 2.27276 1.36667 1.36319C2.27624 0.453623 3.36795 0 4.64413 0H30.8058C32.5066 0 34.1215 0.319045 35.6495 0.957134C37.1762 1.59522 38.5394 2.51407 39.739 3.71252Z" fill="white"/>
<path d="M7.01898 19.551H1.39219C0.623307 19.551 0 20.1744 0 20.9432V36.8224C0 37.5913 0.623307 38.2146 1.39219 38.2146H7.01898C7.78787 38.2146 8.41117 37.5913 8.41117 36.8224V20.9432C8.41117 20.1744 7.78787 19.551 7.01898 19.551Z" fill="white"/>
<defs>
<linearGradient id="paint0_linear_330_1864" x1="10.3786" y1="20.7089" x2="64.5736" y2="20.7089" gradientUnits="userSpaceOnUse">
<stop stop-opacity="0"/>
<stop offset="1" stop-color="#305DFF"/>
</linearGradient>
</defs>
</svg>
